<svg width="580" height="400" xmlns="http://www.w3.org/2000/svg">
 <!-- Created with Method Draw - http://github.com/duopixel/Method-Draw/ -->
 <defs>
  <filter id="svg_4_blur">
   <feGaussianBlur stdDeviation="0.6" in="SourceGraphic"/>
  </filter>
 </defs>
 <g>
  <title>background</title>
  <rect fill="#fff" id="canvas_background" height="402" width="582" y="-1" x="-1"/>
  <g display="none" overflow="visible" y="0" x="0" height="100%" width="100%" id="canvasGrid">
   <rect fill="url(#gridpattern)" stroke-width="0" y="0" x="0" height="100%" width="100%"/>
  </g>
 </g>
 <g>
  <title>Layer 1</title>
  <text filter="url(#svg_4_blur)" font-weight="bold" xml:space="preserve" text-anchor="start" font-family="'Courier New', Courier, monospace" font-size="128" id="svg_4" y="131.5" x="6" stroke-width="0" stroke="#000" fill="#4C261D">CC</text>
  <text stroke="#000" transform="matrix(1.2706699443924847,0,0,1.3685317660260807,-50.57071017755417,-5.36551606444732) " font-weight="bold" xml:space="preserve" text-anchor="start" font-family="'Trebuchet MS', Gadget, sans-serif" font-size="128" id="svg_5" y="132.42284" x="161.565068" stroke-opacity="null" stroke-width="0" fill="#5B9BA2">M</text>
  <text font-weight="bold" xml:space="preserve" text-anchor="start" font-family="'Courier New', Courier, monospace" font-size="128" id="svg_6" y="126.5" x="276.5" fill-opacity="null" stroke-opacity="null" stroke-width="0" stroke="#000" fill="#4C261D">C</text>
  <line stroke="#000" stroke-linecap="null" stroke-linejoin="null" id="svg_7" y2="142.5" x2="359.5" y1="142.5" x1="289.5" fill-opacity="null" stroke-opacity="null" fill="none"/>
  <line stroke-linecap="null" stroke-linejoin="null" id="svg_8" y2="145.5" x2="145.5" y1="145.5" x1="17.5" fill-opacity="null" stroke-opacity="null" stroke="#000" fill="none"/>
  <path id="svg_11" d="m213.920445,94.042359c-3.563046,-1.133521 -5.627219,-5.793672 -5.383738,-10.021208c-0.091214,-5.521952 0.333615,-11.332454 -1.868241,-16.409826c-1.25503,-3.790969 -3.392987,-7.13806 -4.285188,-11.088661c-1.110252,-6.129091 0.261146,-13.075794 4.39324,-17.19049c4.660029,-4.788614 12.101741,-5.412756 17.231507,-1.342725c3.618063,2.988708 6.228576,7.918115 6.131594,13.297258c0.424537,4.019412 -0.898255,7.800017 -2.454374,11.255357c-1.114895,2.782139 -2.416931,5.504598 -3.42887,8.317759c-0.266772,5.768021 -0.113773,11.588947 -0.837365,17.307355c-1.20537,4.431111 -5.747948,7.443826 -9.498565,5.875177l0,0.000002zm9.410534,-10.313318c-2.114568,-1.366909 -5.153189,-0.478211 -7.611065,-0.772485c-2.007759,0.481593 -5.575333,-0.987786 -6.642699,1.216343c2.440998,1.145126 5.309682,0.286721 7.908355,0.476178c2.07933,-0.239495 4.471645,0.227114 6.345408,-0.920038l0,0.000002zm-0.158366,-2.572126c0.311193,-3.472755 -4.268072,-1.700671 -6.12834,-2.217639c-2.462188,0.597661 -6.380537,-1.279312 -7.929058,1.388922c0.917607,2.681371 5.009887,0.795593 7.158817,1.39052c2.291617,-0.097384 4.669058,0.098498 6.898579,-0.561802l0.000002,0zm0.02851,-6.084569c0.60452,-6.765016 4.053639,-12.397748 6.050833,-18.586019c1.642074,-7.409137 -1.610005,-15.873733 -7.497858,-18.983774c-5.860453,-3.483187 -13.668474,-0.85185 -16.980409,5.97338c-3.191074,5.637817 -2.58208,13.298037 0.536795,18.780767c2.225396,4.791619 4.000919,10.176393 3.711692,15.752741c4.6194,0 9.238802,0 13.858206,0c0.106919,-0.979017 0.213802,-1.9581 0.320741,-2.937095zm-10.226582,-9.584194c-1.830226,-3.816357 -3.709087,-7.662122 -4.983566,-11.798117c1.145837,-1.77875 1.479168,-3.760088 1.835118,-5.850031c3.216024,-0.757566 -0.409363,4.395121 2.627021,4.511237c2.695253,1.406324 1.512886,-6.82393 3.752153,-3.857312c-1.607424,3.255841 3.157409,6.494788 3.332281,1.837156c-0.23099,-3.516732 2.879992,-2.857841 1.667084,0.332558c0.100109,1.641198 2.328275,2.111709 2.366423,3.431705c-1.604058,4.17255 -2.998327,8.480384 -4.897714,12.474889c-0.427531,-1.546563 1.681515,-5.422765 2.355438,-7.698694c1.300425,-1.967347 2.417894,-7.269185 -0.972232,-6.54649c-1.966572,3.678477 -4.612032,-2.318717 -6.53758,1.206552c-1.63459,0.584729 -4.205443,-3.394886 -4.67962,0.431588c1.231104,4.544872 3.792758,8.418257 5.133059,12.916214c-0.4548,-0.32157 -0.713774,-0.885736 -0.997866,-1.391257l0,0.000002zm-2.568922,-16.656399c-0.889991,-0.520905 0.375123,2.769231 -0.000018,0l0.000018,0zm5.319463,0.388612c-1.155302,-2.34477 -0.535694,2.844941 0,0zm5.156072,0c-1.155302,-2.34477 -0.535702,2.844941 0,0zm-24.003918,-17.325833c-2.041973,-2.485312 -4.299123,-4.817368 -6.074969,-7.556864c4.436449,4.404067 8.49706,9.363987 12.495155,14.33633c1.061671,1.749549 -1.852154,-1.633793 -2.394462,-2.200916c-1.356915,-1.507054 -2.696057,-3.037015 -4.025726,-4.57855l0.000002,0zm31.532167,7.105765c3.451433,-5.157292 6.671699,-10.563985 10.392852,-15.446557c-0.6231,2.102191 -2.628908,4.617615 -3.890085,6.782679c-2.106157,3.142344 -4.07486,6.464794 -6.483303,9.282212c-0.300599,0.381037 -0.749467,-0.521478 -0.019432,-0.618334l-0.00003,0l-0.000002,0zm-7.475885,-4.892652c1.1925,-4.09047 2.922241,-7.984115 4.852011,-11.644994c-0.04485,2.030872 -2.091514,5.880051 -3.075268,8.398253c-0.556503,1.013348 -1.025899,2.629427 -1.776743,3.246741zm-15.271106,-5.245876c-0.830686,-1.453082 -3.331273,-4.836537 -2.864376,-5.29795c2.410889,3.205672 4.86295,6.514424 6.594815,10.305407c-1.474858,-1.356517 -2.536079,-3.315778 -3.730441,-5.007457l0.000002,0zm9.547044,-1.143591c-0.168119,-1.364641 0.353773,-7.879135 0.643708,-3.455659c0.00103,2.771514 0.24226,5.891559 -0.401014,8.414156c-0.275465,-1.62183 -0.208633,-3.310256 -0.242693,-4.958497z" stroke-opacity="null" stroke-width="null" stroke="#000" fill="#FFFA8D"/>
 </g>
</svg>